<?xml version="1.0" encoding="UTF-8" standalone="no"?><!DOCTYPE svg PUBLIC "-//W3C//DTD SVG 1.1//EN" "http://www.w3.org/Graphics/SVG/1.1/DTD/svg11.dtd"><svg width="100%" height="100%" viewBox="0 0 100 100" version="1.1" xmlns="http://www.w3.org/2000/svg" xmlns:xlink="http://www.w3.org/1999/xlink" xml:space="preserve" xmlns:serif="http://www.serif.com/" style="fill-rule:evenodd;clip-rule:evenodd;stroke-linejoin:round;stroke-miterlimit:2;"><g><path d="M41.813,53.626c-0.868,2.261 -2.52,4.143 -4.66,5.311c-3.797,2.064 -7.108,4.91 -9.266,8.616l-0.362,0.623c-2.106,3.658 -3.114,7.834 -2.908,12.039c0.078,1.925 -0.397,3.832 -1.368,5.5c-0.971,1.67 -2.399,3.033 -4.12,3.933c-1.721,0.899 -3.664,1.3 -5.604,1.153c-1.941,-0.146 -3.8,-0.832 -5.363,-1.98c-1.389,-1.017 -2.498,-2.364 -3.224,-3.916c-0.726,-1.552 -1.046,-3.26 -0.931,-4.967c0.115,-1.707 0.662,-3.357 1.59,-4.8c0.928,-1.443 2.207,-2.632 3.721,-3.458c3.795,-2.067 7.106,-4.903 9.273,-8.629l0.364,-0.621c2.103,-3.659 3.112,-7.834 2.908,-12.039c-0.083,-1.928 0.392,-3.838 1.371,-5.507c1.296,-2.224 3.391,-3.883 5.868,-4.647c2.477,-0.764 5.153,-0.577 7.497,0.523c2.344,1.101 4.183,3.034 5.151,5.416c0.968,2.382 0.994,5.037 0.074,7.437l-0.009,0.011Zm8.163,-24.052c2.041,0 4.037,-0.598 5.735,-1.72c1.698,-1.122 3.021,-2.717 3.802,-4.584c0.781,-1.866 0.986,-3.92 0.588,-5.902c-0.398,-1.982 -1.381,-3.802 -2.825,-5.23c-1.444,-1.429 -3.283,-2.401 -5.285,-2.795c-2.002,-0.394 -4.078,-0.192 -5.964,0.582c-1.886,0.773 -3.498,2.083 -4.632,3.763c-1.134,1.68 -1.739,3.655 -1.739,5.675c0,1.341 0.267,2.669 0.785,3.908c0.519,1.239 1.279,2.365 2.237,3.313c0.958,0.948 2.096,1.7 3.348,2.214c1.252,0.513 2.594,0.777 3.949,0.777Zm35.722,40.852c-2.041,-0 -4.037,0.598 -5.735,1.72c-1.698,1.122 -3.021,2.717 -3.802,4.584c-0.781,1.866 -0.986,3.92 -0.588,5.902c0.398,1.982 1.381,3.802 2.825,5.23c1.444,1.429 3.283,2.402 5.285,2.795c2.002,0.394 4.077,0.192 5.964,-0.582c1.886,-0.773 3.498,-2.083 4.632,-3.762c1.134,-1.68 1.738,-3.655 1.738,-5.676c-0.001,-2.708 -1.088,-5.305 -3.023,-7.22c-1.935,-1.915 -4.56,-2.991 -7.296,-2.992Zm-11.67,-28.63c-1.563,-1.147 -3.422,-1.834 -5.363,-1.98c-1.941,-0.146 -3.884,0.254 -5.604,1.154c-1.721,0.9 -3.149,2.263 -4.12,3.933c-0.971,1.669 -1.445,3.576 -1.368,5.501c0.206,4.205 -0.802,8.381 -2.908,12.039l-0.362,0.621c-2.167,3.715 -5.478,6.551 -9.275,8.629c-1.609,0.879 -2.951,2.167 -3.888,3.731c-0.937,1.564 -1.436,3.348 -1.444,5.166c-0.008,1.818 0.475,3.606 1.398,5.178c0.924,1.573 2.255,2.872 3.855,3.765c1.601,0.893 3.414,1.347 5.251,1.314c1.837,-0.033 3.633,-0.549 5.2,-1.498c1.568,-0.949 2.851,-2.294 3.718,-3.898c0.866,-1.604 1.285,-3.407 1.211,-5.224c-0.207,-4.205 0.802,-8.381 2.908,-12.039l0.362,-0.623c2.167,-3.712 5.478,-6.551 9.273,-8.616c1.514,-0.825 2.794,-2.014 3.722,-3.457c0.928,-1.443 1.475,-3.094 1.59,-4.801c0.115,-1.707 -0.205,-3.415 -0.932,-4.967c-0.726,-1.552 -1.835,-2.899 -3.225,-3.916l0,-0.011Z" style="fill:#fff;fill-rule:nonzero;"/></g></svg>