<?xml version="1.0" encoding="UTF-8" standalone="no"?><!DOCTYPE svg PUBLIC "-//W3C//DTD SVG 1.1//EN" "http://www.w3.org/Graphics/SVG/1.1/DTD/svg11.dtd"><svg width="100%" height="100%" viewBox="0 0 1024 1024" version="1.1" xmlns="http://www.w3.org/2000/svg" xmlns:xlink="http://www.w3.org/1999/xlink" xml:space="preserve" xmlns:serif="http://www.serif.com/" style="fill-rule:evenodd;clip-rule:evenodd;stroke-linejoin:round;stroke-miterlimit:2;"><g id="Layer1"><path d="M1004.331,213.583l-84.728,596.833l-132.087,0l59.851,-373.773l-220.662,373.648l-130.856,0l-52.585,-417.737c-4.293,-34.106 -33.313,-59.677 -67.688,-59.643l-110.326,0.108l-90.631,359.842c0,0 112.313,8.169 179.556,-16.08c44.463,-16.034 85.514,-95.99 85.514,-95.99l21.224,155.127c0,0 -6.644,18.397 -65.851,47.799c-60.567,30.078 -142.482,26.574 -142.482,26.574l-232.911,0l135.118,-520.393l-108.111,-73.089l383.962,-3.226c68.779,-0 127.199,54.794 135.071,123.12l34.379,298.401l246.996,-421.522l157.247,-0Z" style="fill:#fff;"/></g></svg>