<?xml version="1.0" encoding="UTF-8" standalone="no"?><!DOCTYPE svg PUBLIC "-//W3C//DTD SVG 1.1//EN" "http://www.w3.org/Graphics/SVG/1.1/DTD/svg11.dtd"><svg width="100%" height="100%" viewBox="0 0 267 267" version="1.1" xmlns="http://www.w3.org/2000/svg" xmlns:xlink="http://www.w3.org/1999/xlink" xml:space="preserve" xmlns:serif="http://www.serif.com/" style="fill-rule:evenodd;clip-rule:evenodd;stroke-linejoin:round;stroke-miterlimit:2;"><g id="Layer1"><rect x="-4.728" y="-4.728" width="281.324" height="279.099" style="fill:#fff;"/></g><path d="M98.547,202.61c0,0 -9.749,5.929 6.777,7.625c19.895,2.536 30.493,2.116 52.512,-2.116c4.425,2.71 9.106,4.98 13.974,6.777c-49.54,21.179 -112.237,-1.268 -73.271,-12.286l0.008,0Zm-6.341,-27.528c0,0 -10.59,8.045 5.929,9.749c21.599,2.116 38.538,2.536 67.77,-3.385c2.843,2.883 6.324,5.058 10.162,6.349c-59.717,17.787 -126.632,1.696 -83.861,-12.706l0,-0.008Zm116.89,48.272c0,0 7.197,5.929 -8.045,10.59c-28.376,8.481 -119.006,11.018 -144.418,0c-8.893,-3.805 8.045,-9.313 13.475,-10.162c5.509,-1.268 8.481,-1.268 8.481,-1.268c-9.749,-6.777 -64.798,13.974 -27.948,19.895c101.22,16.519 184.653,-7.197 158.393,-19.055l0.063,0Zm-105.968,-77.076c0,0 -46.163,11.018 -16.519,14.822c12.706,1.696 37.69,1.268 60.985,-0.42c19.055,-1.696 38.126,-5.073 38.126,-5.073c0,0 -6.777,2.964 -11.438,5.929c-47.003,12.286 -137.221,6.777 -111.381,-5.929c22.019,-10.59 40.234,-9.313 40.234,-9.313l-0.008,-0.016Zm82.593,46.163c47.431,-24.572 25.412,-48.272 10.162,-45.315c-3.805,0.848 -5.509,1.696 -5.509,1.696c0,0 1.268,-2.536 4.233,-3.385c30.073,-10.59 53.788,31.761 -9.749,48.272c0,0 0.42,-0.42 0.848,-1.268l0.016,0Zm-77.916,66.914c45.735,2.964 115.622,-1.696 117.31,-23.304c0,0 -3.385,8.481 -37.69,14.822c-38.966,7.197 -87.246,6.341 -115.622,1.696c0,0 5.929,5.073 36.002,6.777l0,0.008Z" style="fill-rule:nonzero;"/><path d="M156.996,6.52c0,0 26.26,26.68 -24.984,66.914c-41.082,32.609 -9.313,51.244 0,72.423c-24.144,-21.599 -41.502,-40.662 -29.645,-58.441c17.359,-26.268 65.218,-38.895 54.629,-80.897Zm-13.475,121.551c12.286,13.974 -3.385,26.68 -3.385,26.68c0,0 31.341,-16.091 16.939,-36.002c-13.126,-19.055 -23.304,-28.376 31.761,-60.137c0,0 -86.818,21.599 -45.315,69.459Z" style="fill-rule:nonzero;"/></svg>